PathFileType	4	(X/Y/Z)	C:\Users\Basilio\Documents\Thesis Gigler\squatting_fais\c3dfiles\054\SLS_front_pre1\markers_experimental.trc
DataRate	CameraRate	NumFrames	NumMarkers	Units	OrigDataRate	OrigDataStartFrame	OrigNumFrames
200.000000	200.000000	4	61	mm	200.000000	503	1342
Frame#	Time	FHD			LBHD			RBHD			C7			T10			CLAV			LSHO			LUUPA			LMUPA			LDUPA			LLEP			LMEP			LRAD			LUL			LRFIN			RSHO			RUPA1			RMUPA			RDUPA			RLEP			RMEP			RRAD			RUL			RUFIN			LASI			RASI			USACR			LSACR			RSACR			LTHI1			LTHI2			LTHI3			LTHI4			LLFC			LMFC			LTIB1			LTIB2			LTIB3			LTIB4			LLMAL			LMMAL			LHEE			LMT1			LMT2			LMT5			RTHI			RTHI2			RTHI3			RTHI4			RLFC			RMFC			RTIB1			RTIB2			RTIB3			RTIB4			RLMAL			RMMAL			RHEE			RMT1			RMT2			RMT5			
		X1	Y1	Z1	X2	Y2	Z2	X3	Y3	Z3	X4	Y4	Z4	X5	Y5	Z5	X6	Y6	Z6	X7	Y7	Z7	X8	Y8	Z8	X9	Y9	Z9	X10	Y10	Z10	X11	Y11	Z11	X12	Y12	Z12	X13	Y13	Z13	X14	Y14	Z14	X15	Y15	Z15	X16	Y16	Z16	X17	Y17	Z17	X18	Y18	Z18	X19	Y19	Z19	X20	Y20	Z20	X21	Y21	Z21	X22	Y22	Z22	X23	Y23	Z23	X24	Y24	Z24	X25	Y25	Z25	X26	Y26	Z26	X27	Y27	Z27	X28	Y28	Z28	X29	Y29	Z29	X30	Y30	Z30	X31	Y31	Z31	X32	Y32	Z32	X33	Y33	Z33	X34	Y34	Z34	X35	Y35	Z35	X36	Y36	Z36	X37	Y37	Z37	X38	Y38	Z38	X39	Y39	Z39	X40	Y40	Z40	X41	Y41	Z41	X42	Y42	Z42	X43	Y43	Z43	X44	Y44	Z44	X45	Y45	Z45	X46	Y46	Z46	X47	Y47	Z47	X48	Y48	Z48	X49	Y49	Z49	X50	Y50	Z50	X51	Y51	Z51	X52	Y52	Z52	X53	Y53	Z53	X54	Y54	Z54	X55	Y55	Z55	X56	Y56	Z56	X57	Y57	Z57	X58	Y58	Z58	X59	Y59	Z59	X60	Y60	Z60	X61	Y61	Z61	

504	2.515	-203.3279113769532	1692.015380859375	-1090.193359375	-365.5388793945313	1642.23388671875	-1161.912841796875	-383.6084594726563	1642.108642578125	-1022.570373535156	-421.2679443359376	1483.594604492188	-1078.87109375	-492.3739318847657	1157.950439453125	-1078.664428710938	-284.9400329589844	1410.346923828125	-1087.586181640625	-346.3467712402344	1475.382568359375	-1234.699951171875	-226.3883514404297	1340.076171875	-1376.147827148438	-188.7119598388672	1369.963256835938	-1367.97412109375	-161.7876129150391	1323.286254882813	-1395.71484375	-104.3498077392578	1319.580810546875	-1399.73974609375	-106.0302658081055	1254.5390625	-1354.067260742188	158.6867065429688	1315.285522460938	-1341.512817382813	164.635238647461	1281.07958984375	-1412.48291015625	248.2335510253907	1324.750732421875	-1366.273071289063	-333.6716918945313	1472.7080078125	-936.989440917969	-187.8298645019532	1354.608520507813	-808.0228271484377	-151.3893585205078	1384.0986328125	-818.9153442382815	-120.8525390625	1336.478149414063	-795.7219848632815	-76.10566711425783	1330.022705078125	-796.520690917969	-80.92874145507814	1272.7314453125	-846.8796386718752	188.4885864257813	1378.5185546875	-897.7754516601565	192.1350097656251	1336.416870117188	-829.9961547851565	266.2145080566407	1402.4287109375	-881.5632934570315	-310.0439453125001	971.5193481445315	-1172.87841796875	-325.4443359375001	1004.856323242188	-927.5819091796877	-503.1138000488282	1063.3037109375	-1068.418823242188	-507.3923950195314	1028.8720703125	-1093.55078125	-510.6317749023439	1033.64306640625	-1036.566284179688	-309.1811523437501	729.5436401367189	-1241.90576171875	-244.0983428955079	674.2930908203126	-1232.975830078125	-204.6594390869141	698.7858886718751	-1226.762451171875	-246.9831237792969	616.3720703125001	-1215.371948242188	-182.662582397461	485.5898437500001	-1178.283081054688	-156.3969421386719	507.0931091308595	-1045.545532226563	-180.3432312011719	333.5472106933594	-1099.98828125	-239.9495849609376	293.0470886230469	-1151.188842773438	-207.0236358642579	285.8412170410157	-1123.281005859375	-236.9091339111329	222.7005004882813	-1076.567749023438	-336.3914489746094	111.5424041748047	-1100.371337890625	-303.6328125000001	135.5063018798828	-1010.683776855469	-408.0125427246095	105.1842041015625	-1038.641845703125	-198.899398803711	56.8208694458008	-1016.396057128906	-190.4004669189453	54.40017318725587	-1065.484375	-242.3434753417969	39.77340698242188	-1116.932250976563	-236.2668762207032	746.4394531250001	-839.0075683593752	-170.9200897216797	731.6403808593751	-846.9146728515627	-147.6349334716797	753.4271850585939	-855.852478027344	-140.9413452148438	654.7854614257814	-860.2528076171877	-103.905143737793	576.3810424804689	-866.7711181640627	-70.14966583251955	602.4884033203126	-996.9778442382815	-22.54087448120118	491.4768371582032	-876.8884887695315	-70.18982696533205	399.6445617675782	-848.9737548828127	-24.63195228576661	405.6012573242189	-858.5195312500002	3.645749092102052	363.5479125976563	-885.0908203125002	-6.859062671661379	179.289291381836	-874.6209106445315	34.40982818603516	203.6342010498047	-956.8447875976565	-52.51929473876955	136.1292419433594	-939.7550048828127	166.9195098876953	151.8421783447266	-926.3676757812502	166.1932220458985	160.8615417480469	-878.2544555664065	116.2587356567383	134.1787109375	-836.1938476562502	
505	2.52	-202.9707336425782	1691.086791992188	-1090.302978515625	-365.3829650878907	1641.406005859375	-1161.85302734375	-382.9174194335938	1641.279663085938	-1022.6171875	-420.993621826172	1482.822265625	-1078.893920898438	-492.7063293457032	1157.407836914063	-1078.739135742188	-284.7548828125001	1409.341674804688	-1087.691040039063	-346.0299987792969	1474.629638671875	-1234.730834960938	-226.0078125000001	1339.151000976563	-1376.186401367188	-187.5547027587891	1369.144165039063	-1367.845703125	-161.5042114257813	1322.628173828125	-1395.621459960938	-104.0371780395508	1318.73388671875	-1399.5478515625	-105.7648010253907	1253.551391601563	-1354.108764648438	159.0478668212891	1314.652465820313	-1341.010375976563	165.1381072998047	1280.191528320313	-1412.130981445313	249.1109924316407	1323.746948242188	-1365.776733398438	-333.5351562500001	1471.898559570313	-937.103454589844	-187.6242828369141	1353.6826171875	-808.142272949219	-151.3363952636719	1383.237426757813	-818.9429321289065	-120.4978866577149	1335.464721679688	-795.7545166015627	-75.71517944335939	1329.131713867188	-796.7191162109377	-80.9840545654297	1271.75634765625	-847.0881347656252	188.8802185058594	1377.288208007813	-897.8470458984377	192.150863647461	1335.406005859375	-830.0042114257815	266.6437377929688	1401.203002929688	-881.714294433594	-309.9880676269532	970.8994140625002	-1173.224365234375	-325.4560852050782	1004.088500976563	-927.8054809570315	-503.1932373046876	1062.56591796875	-1068.542846679688	-507.5391845703126	1028.061157226563	-1093.62158203125	-510.8675537109376	1032.930297851563	-1036.581665039063	-308.5664672851563	728.9275512695314	-1241.921142578125	-244.0814056396485	673.7178955078126	-1233.208251953125	-204.6356964111329	698.2975463867189	-1227.045776367188	-246.7993164062501	615.9291381835939	-1215.590942382813	-182.7831420898438	485.2401123046876	-1178.510131835938	-155.7148742675782	506.8303527832032	-1045.8447265625	-180.099609375	333.3653869628907	-1100.11962890625	-239.7169342041016	292.8227539062501	-1151.315307617188	-206.7200622558594	285.5503845214844	-1123.421020507813	-236.760482788086	222.5081634521485	-1076.698608398438	-336.3894653320313	111.5108947753907	-1100.438354492188	-303.6309204101563	135.5553588867188	-1010.776550292969	-407.9718627929689	105.187484741211	-1038.65283203125	-198.9125671386719	56.92982864379884	-1016.441589355469	-190.3839874267578	54.40138244628908	-1065.512817382813	-242.4436798095704	39.74126434326173	-1116.92138671875	-236.3435974121094	745.9960937500001	-839.0752563476565	-171.2043914794922	731.1851806640626	-846.9587402343752	-147.6967010498047	753.0872802734376	-855.8549804687502	-140.9583129882813	654.3778076171876	-860.3584594726565	-103.7603302001953	575.9220581054689	-866.848815917969	-70.13729858398439	602.1224365234376	-997.162780761719	-22.44366073608399	491.1673889160157	-876.9497680664065	-70.00210571289064	399.3952636718751	-848.9982910156252	-24.53804016113282	405.3254699707032	-858.529479980469	3.920932769775392	363.1985778808594	-885.2117309570315	-6.591905593872072	178.9474334716797	-874.6943969726565	34.72294235229493	203.2876586914063	-956.9046630859377	-52.36842727661134	135.6887817382813	-939.8108520507815	167.1026611328125	151.6396484375	-926.232849121094	166.7613067626953	160.8116455078125	-878.181335449219	116.5036544799805	134.0372619628907	-836.169616699219	
506	2.525	-202.5009918212891	1690.244506835938	-1090.502563476563	-364.9333801269532	1640.505126953125	-1161.989501953125	-382.6257324218751	1640.402709960938	-1022.6494140625	-420.8098449707032	1482.056884765625	-1078.92431640625	-492.7420959472657	1156.60791015625	-1078.8720703125	-284.5146484375001	1408.460693359375	-1087.78369140625	-345.9074707031251	1473.886962890625	-1234.824829101563	-225.667465209961	1338.481811523438	-1376.119506835938	-187.29736328125	1368.302368164063	-1367.676147460938	-161.1797485351563	1321.99755859375	-1395.62841796875	-103.6752548217774	1317.9287109375	-1399.281982421875	-105.5597686767578	1252.849853515625	-1353.9013671875	159.2017364501953	1313.42626953125	-1340.564453125	166.1071929931641	1279.10546875	-1411.738037109375	249.4029235839844	1322.775146484375	-1365.210083007813	-333.2513122558594	1471.194091796875	-937.165222167969	-187.4578704833985	1352.915771484375	-808.174743652344	-151.0695953369141	1382.432739257813	-819.156921386719	-120.3074188232422	1334.824096679688	-795.7618408203127	-75.51023101806642	1328.306274414063	-796.807312011719	-80.69149780273439	1270.813354492188	-847.294860839844	188.9095153808594	1376.525268554688	-897.9641723632815	192.4110717773438	1334.374267578125	-830.1706542968752	266.7248229980469	1400.376953125	-881.7935791015627	-310.3828430175782	970.040466308594	-1173.349487304688	-325.7836914062501	1003.304443359375	-927.7769775390627	-503.5393676757814	1061.929565429688	-1068.562133789063	-507.6954345703126	1027.283447265625	-1093.668823242188	-511.1585388183595	1032.282836914063	-1036.740234375	-309.3084716796876	728.3686523437501	-1242.265869140625	-244.1778869628907	673.2858276367189	-1233.403076171875	-204.6708374023438	697.7992553710939	-1227.451782226563	-246.4851074218751	615.3673095703126	-1215.80126953125	-182.2865447998047	484.934295654297	-1178.77392578125	-155.1204833984375	506.5743713378907	-1046.129272460938	-179.7993316650391	332.9955749511719	-1100.325927734375	-239.5788574218751	292.7103576660157	-1151.41552734375	-206.5251770019532	285.2984008789063	-1123.691528320313	-236.7011260986329	222.4178924560547	-1076.794799804688	-336.3820495605469	111.4357604980469	-1100.468994140625	-303.6361083984376	135.610107421875	-1010.844299316406	-408.0074157714845	105.1705703735352	-1038.65673828125	-198.9439086914063	56.89998245239259	-1016.404296875	-190.41748046875	54.39255523681642	-1065.52294921875	-242.4082794189454	39.76043701171876	-1116.970336914063	-236.2938232421876	745.3462524414064	-839.1907958984377	-171.2902984619141	730.8389892578126	-847.0150146484377	-148.1451873779297	752.5024414062501	-856.2536621093752	-141.0496520996094	654.0234985351564	-860.4246215820315	-103.7307281494141	575.6806030273439	-866.852722167969	-70.25936126708986	601.7003173828126	-997.2941894531252	-22.36999130249024	490.9361572265626	-876.998718261719	-69.86840057373048	399.2199707031251	-849.0421142578127	-24.43766593933106	405.0776977539064	-858.6065063476565	3.888869524002076	362.9125976562501	-885.306335449219	-6.409209728240969	178.6914825439453	-874.716979980469	34.92353820800782	202.9481964111329	-956.9141845703127	-52.39663314819337	135.4967498779297	-939.6612548828127	169.29052734375	152.3777160644532	-926.1246337890627	167.0167236328125	160.7847747802735	-878.056823730469	116.7684478759766	133.9637756347657	-836.1064453125002	
507	2.53	-202.4234924316407	1689.35986328125	-1090.490600585938	-364.5747680664063	1639.661865234375	-1162.052124023438	-382.5209045410157	1639.661010742188	-1022.692626953125	-420.5383300781251	1481.311889648438	-1079.06640625	-492.8769531250001	1155.853515625	-1078.918701171875	-284.2397766113282	1407.732299804688	-1087.937255859375	-345.7337036132813	1473.283325195313	-1234.973266601563	-225.9508666992188	1337.834716796875	-1375.87939453125	-187.2765808105469	1367.345581054688	-1367.597290039063	-160.8232116699219	1321.161010742188	-1395.552856445313	-103.2525939941407	1317.08544921875	-1399.117919921875	-105.2565231323242	1252.095947265625	-1353.750854492188	159.5780181884766	1312.491577148438	-1340.327270507813	166.4126892089844	1278.153076171875	-1411.424682617188	249.7480010986329	1321.800903320313	-1364.881103515625	-332.9919738769532	1470.278198242188	-937.318786621094	-187.4717559814453	1352.000122070313	-808.1737060546877	-150.9598236083985	1381.544067382813	-819.1840820312502	-119.894287109375	1333.8349609375	-796.0332031250002	-75.46089172363283	1327.305908203125	-796.922302246094	-80.51754760742189	1270.07861328125	-847.3721923828127	189.1252746582032	1375.392822265625	-898.070739746094	192.6956176757813	1333.39990234375	-830.2399902343752	266.8708496093751	1399.205200195313	-881.8821411132815	-310.8286743164063	969.168640136719	-1173.586669921875	-326.2161560058594	1002.566284179688	-927.9466552734377	-503.9809875488282	1061.151245117188	-1068.69140625	-507.639862060547	1026.44091796875	-1093.750366210938	-511.4588317871095	1031.673828125	-1036.963500976563	-309.2979125976563	727.5559082031251	-1242.328735351563	-244.2686614990235	672.6673583984376	-1233.624267578125	-204.6731414794922	697.3916625976564	-1227.722045898438	-246.3905792236329	614.8460693359376	-1215.979614257813	-181.6246490478516	484.6717834472657	-1179.035522460938	-154.5477142333985	506.3662109375001	-1046.447509765625	-179.4248046875	332.7412109375001	-1100.46630859375	-239.5245971679688	292.4255676269532	-1151.7548828125	-206.4668121337891	285.0215454101563	-1123.998779296875	-236.531967163086	222.3691864013672	-1077.001708984375	-336.3121643066407	111.4443588256836	-1100.594116210938	-303.5916748046876	135.6488647460938	-1010.971740722656	-408.0010986328126	105.1962585449219	-1038.719116210938	-198.9810943603516	56.94861602783205	-1016.409484863281	-190.4174499511719	54.38998413085939	-1065.554565429688	-242.4127655029297	39.70901107788087	-1116.965209960938	-236.4437255859376	744.7842407226564	-839.2297363281252	-171.5229644775391	730.4475708007814	-847.0635375976565	-148.321533203125	752.0178833007814	-856.2830810546877	-140.965087890625	653.6638793945314	-860.445251464844	-103.665397644043	575.4468994140626	-866.8701171875002	-70.06877899169923	601.3876953125001	-997.3845825195315	-22.1584587097168	490.4500427246095	-877.0780029296877	-69.73019409179689	398.7583923339845	-849.1530761718752	-24.30576133728028	404.6665344238282	-858.6441650390627	3.999536991119386	362.6192321777344	-885.3660888671877	-6.103509902954103	178.4566650390625	-874.8090820312502	35.14295959472657	202.6626892089844	-956.9602050781252	-51.80943679809572	134.8886260986328	-939.7490844726565	169.2393646240235	152.1258087158203	-925.989929199219	167.3423919677735	160.6969909667969	-878.1006469726565	117.0029754638672	133.8609924316407	-836.0269165039065	
